<?xml version="1.0" encoding="UTF-8" standalone="no"?>
<!DOCTYPE svg PUBLIC "-//W3C//DTD SVG 1.1//EN" "http://www.w3.org/Graphics/SVG/1.1/DTD/svg11.dtd">
<svg width="100%" height="100%" viewBox="0 0 1605 1159" version="1.1" xmlns="http://www.w3.org/2000/svg" xmlns:xlink="http://www.w3.org/1999/xlink" xml:space="preserve" xmlns:serif="http://www.serif.com/" style="fill-rule:evenodd;clip-rule:evenodd;stroke-linecap:round;stroke-linejoin:round;stroke-miterlimit:1.5;">
    <g transform="matrix(1,0,0,1,-66.5278,-376.528)">
        <g id="Layer1">
            <g>
                <path d="M92.092,1060L80,1012.44L70,987.213L115.875,983.86L142.493,940L246.456,690L316.078,477.063L292.403,394.631L287.391,383.819L304.961,380L560,380L590,395.207L595.552,400L591.659,470L590,635.085L744.264,380L907.995,380L1037.38,397.545L905.39,577.086L767.398,990L825.215,1020L794.039,1060L553.332,1060L538,1011L543,997L613,996L721,738L810,523L780,531L638,750L604,787L584,800L488,799L464,795L448,728L463,723L466,718L466,566L290,985L342,1008L302,1061L92.092,1060Z" style="fill-opacity:0;stroke:white;stroke-width:6.94px;"/>
                <path d="M92.092,1060L80,1012.44L140,1008L161,952L204,840L260,689L340,478L292.403,394.631L322,394L382,394L559,395L590,395.207L595.552,400L591.659,470L588,684L765,397L912,397L1037.38,397.545L987,464L905,577L757,1020L825.215,1020L794.039,1060L553.332,1060L556,1015L649,1016L722,820L755,728L826,534L812,522L780,531L638,750L604,787L584,800L488,799L480,729L494,709L504,554L494,539L478,544L471,553L281,1006L342,1008L302,1061L92.092,1060Z" style="fill:white;stroke:white;stroke-width:6.94px;"/>
            </g>
            <g transform="matrix(1,0,0,1,630.655,470.065)">
                <path d="M92.092,1060L80,1012.44L70,987.213L115.875,983.86L142.493,940L246.456,690L316.078,477.063L292.403,394.631L287.391,383.819L304.961,380L560,380L590,395.207L595.552,400L591.659,470L590,635.085L744.264,380L907.995,380L1037.38,397.545L905.39,577.086L767.398,990L825.215,1020L794.039,1060L553.332,1060L538,1011L543,997L613,996L721,738L810,523L780,531L638,750L604,787L584,800L488,799L464,795L448,728L463,723L466,718L466,566L290,985L342,1008L302,1061L92.092,1060Z" style="fill-opacity:0;stroke:white;stroke-width:6.94px;"/>
                <path d="M92.092,1060L80,1012.44L140,1008L161,952L204,840L260,689L340,478L292.403,394.631L322,394L382,394L559,395L590,395.207L595.552,400L591.659,470L588,684L765,397L912,397L1037.38,397.545L987,464L905,577L757,1020L825.215,1020L794.039,1060L553.332,1060L556,1015L649,1016L722,820L755,728L826,534L812,522L780,531L638,750L604,787L584,800L488,799L480,729L494,709L504,554L494,539L478,544L471,553L281,1006L342,1008L302,1061L92.092,1060Z" style="fill:white;stroke:white;stroke-width:6.94px;"/>
            </g>
            <g>
                <g transform="matrix(1.04524,7.83776e-18,-7.83776e-18,-0.981235,-70.0699,1351.53)">
                    <path d="M1115,768L1105,728L1079,644L1524,644L1549,727L1518,768L1115,768Z" style="fill-opacity:0;stroke:white;stroke-width:6.85px;"/>
                </g>
                <g transform="matrix(1.01512,1.27732e-17,-1.27732e-17,-0.910822,-23.425,1303.42)">
                    <path d="M1549,727L1105,728L1079.1,643.531L1525.43,644.078L1549,727Z" style="fill:white;stroke:white;stroke-width:7.2px;"/>
                </g>
            </g>
        </g>
        <g id="Layer2">
        </g>
    </g>
</svg>
